<mxfile host="app.diagrams.net" modified="2023-09-26T10:57:30.836Z" agent="Mozilla/5.0 (Windows NT 10.0; Win64; x64) AppleWebKit/537.36 (KHTML, like Gecko) Chrome/116.0.0.0 Safari/537.36" etag="WXb_B1WZ5-iB9Ich-xaD" version="21.8.2" type="device">
  <diagram name="Pagina-1" id="VMd9zIR5v_E3JSTBtSTk">
    <mxGraphModel dx="1702" dy="445" grid="1" gridSize="10" guides="1" tooltips="1" connect="1" arrows="1" fold="1" page="1" pageScale="1" pageWidth="827" pageHeight="1169" math="0" shadow="0">
      <root>
        <mxCell id="0" />
        <mxCell id="1" parent="0" />
        <mxCell id="-yCym-bt9uruvA2rh7P5-18" value="" style="whiteSpace=wrap;html=1;" vertex="1" parent="1">
          <mxGeometry x="-170" y="90" width="120" height="35" as="geometry" />
        </mxCell>
        <mxCell id="-yCym-bt9uruvA2rh7P5-1" value="" style="whiteSpace=wrap;html=1;aspect=fixed;" vertex="1" parent="1">
          <mxGeometry x="320" y="230" width="80" height="80" as="geometry" />
        </mxCell>
        <mxCell id="-yCym-bt9uruvA2rh7P5-2" value="&lt;b&gt;TURTLE&lt;/b&gt;" style="text;html=1;align=center;verticalAlign=middle;resizable=0;points=[];autosize=1;strokeColor=none;fillColor=none;" vertex="1" parent="1">
          <mxGeometry x="325" y="255" width="70" height="30" as="geometry" />
        </mxCell>
        <mxCell id="-yCym-bt9uruvA2rh7P5-3" value="" style="whiteSpace=wrap;html=1;aspect=fixed;" vertex="1" parent="1">
          <mxGeometry x="320" y="230" width="80" height="80" as="geometry" />
        </mxCell>
        <mxCell id="-yCym-bt9uruvA2rh7P5-4" value="&lt;b&gt;TURTLE&lt;/b&gt;" style="text;html=1;align=center;verticalAlign=middle;resizable=0;points=[];autosize=1;strokeColor=none;fillColor=none;" vertex="1" parent="1">
          <mxGeometry x="325" y="255" width="70" height="30" as="geometry" />
        </mxCell>
        <mxCell id="-yCym-bt9uruvA2rh7P5-12" value="&lt;br&gt;" style="whiteSpace=wrap;html=1;fillColor=none;" vertex="1" parent="1">
          <mxGeometry x="-170" y="90" width="410" height="170" as="geometry" />
        </mxCell>
        <mxCell id="-yCym-bt9uruvA2rh7P5-14" value="" style="shape=mxgraph.cisco.computers_and_peripherals.pc;sketch=0;html=1;pointerEvents=1;dashed=0;fillColor=#036897;strokeColor=#ffffff;strokeWidth=2;verticalLabelPosition=bottom;verticalAlign=top;align=center;outlineConnect=0;" vertex="1" parent="1">
          <mxGeometry x="-150" y="130" width="78" height="70" as="geometry" />
        </mxCell>
        <mxCell id="-yCym-bt9uruvA2rh7P5-15" value="" style="shape=mxgraph.cisco.computers_and_peripherals.pc;sketch=0;html=1;pointerEvents=1;dashed=0;fillColor=#036897;strokeColor=#ffffff;strokeWidth=2;verticalLabelPosition=bottom;verticalAlign=top;align=center;outlineConnect=0;" vertex="1" parent="1">
          <mxGeometry x="130" y="130" width="78" height="70" as="geometry" />
        </mxCell>
        <mxCell id="-yCym-bt9uruvA2rh7P5-16" value="" style="shape=mxgraph.cisco.computers_and_peripherals.pc;sketch=0;html=1;pointerEvents=1;dashed=0;fillColor=#036897;strokeColor=#ffffff;strokeWidth=2;verticalLabelPosition=bottom;verticalAlign=top;align=center;outlineConnect=0;" vertex="1" parent="1">
          <mxGeometry x="-10" y="130" width="78" height="70" as="geometry" />
        </mxCell>
        <mxCell id="-yCym-bt9uruvA2rh7P5-20" value="" style="whiteSpace=wrap;html=1;" vertex="1" parent="1">
          <mxGeometry x="480" y="90" width="120" height="35" as="geometry" />
        </mxCell>
        <mxCell id="-yCym-bt9uruvA2rh7P5-21" value="&#xa;&lt;b style=&quot;border-color: var(--border-color); color: rgb(0, 0, 0); font-family: Helvetica; font-size: 12px; font-style: normal; font-variant-ligatures: normal; font-variant-caps: normal; letter-spacing: normal; orphans: 2; text-indent: 0px; text-transform: none; widows: 2; word-spacing: 0px; -webkit-text-stroke-width: 0px; text-decoration-thickness: initial; text-decoration-style: initial; text-decoration-color: initial; text-align: center; background-color: rgb(251, 251, 251);&quot;&gt;8.13.13.0&lt;/b&gt;&#xa;&#xa;" style="whiteSpace=wrap;html=1;fillColor=none;" vertex="1" parent="1">
          <mxGeometry x="480" y="90" width="410" height="170" as="geometry" />
        </mxCell>
        <mxCell id="-yCym-bt9uruvA2rh7P5-22" value="" style="shape=mxgraph.cisco.computers_and_peripherals.pc;sketch=0;html=1;pointerEvents=1;dashed=0;fillColor=#036897;strokeColor=#ffffff;strokeWidth=2;verticalLabelPosition=bottom;verticalAlign=top;align=center;outlineConnect=0;" vertex="1" parent="1">
          <mxGeometry x="500" y="130" width="78" height="70" as="geometry" />
        </mxCell>
        <mxCell id="-yCym-bt9uruvA2rh7P5-23" value="" style="shape=mxgraph.cisco.computers_and_peripherals.pc;sketch=0;html=1;pointerEvents=1;dashed=0;fillColor=#036897;strokeColor=#ffffff;strokeWidth=2;verticalLabelPosition=bottom;verticalAlign=top;align=center;outlineConnect=0;" vertex="1" parent="1">
          <mxGeometry x="780" y="130" width="78" height="70" as="geometry" />
        </mxCell>
        <mxCell id="-yCym-bt9uruvA2rh7P5-24" value="" style="shape=mxgraph.cisco.computers_and_peripherals.pc;sketch=0;html=1;pointerEvents=1;dashed=0;fillColor=#036897;strokeColor=#ffffff;strokeWidth=2;verticalLabelPosition=bottom;verticalAlign=top;align=center;outlineConnect=0;" vertex="1" parent="1">
          <mxGeometry x="640" y="130" width="78" height="70" as="geometry" />
        </mxCell>
        <mxCell id="-yCym-bt9uruvA2rh7P5-27" value="" style="endArrow=none;html=1;rounded=0;entryX=0;entryY=0.5;entryDx=0;entryDy=0;" edge="1" parent="1" target="-yCym-bt9uruvA2rh7P5-3">
          <mxGeometry width="50" height="50" relative="1" as="geometry">
            <mxPoint x="240" y="164.38" as="sourcePoint" />
            <mxPoint x="390" y="164.38" as="targetPoint" />
            <Array as="points">
              <mxPoint x="290" y="164" />
              <mxPoint x="290" y="270" />
            </Array>
          </mxGeometry>
        </mxCell>
        <mxCell id="-yCym-bt9uruvA2rh7P5-29" value="" style="endArrow=none;html=1;rounded=0;exitX=1;exitY=0.5;exitDx=0;exitDy=0;" edge="1" parent="1" source="-yCym-bt9uruvA2rh7P5-3">
          <mxGeometry width="50" height="50" relative="1" as="geometry">
            <mxPoint x="429" y="164" as="sourcePoint" />
            <mxPoint x="479" y="164" as="targetPoint" />
            <Array as="points">
              <mxPoint x="430" y="270" />
              <mxPoint x="430" y="164" />
            </Array>
          </mxGeometry>
        </mxCell>
        <mxCell id="-yCym-bt9uruvA2rh7P5-30" value="&lt;b style=&quot;border-color: var(--border-color); color: rgb(0, 0, 0); font-family: Helvetica; font-size: 12px; font-style: normal; font-variant-ligatures: normal; font-variant-caps: normal; letter-spacing: normal; orphans: 2; text-indent: 0px; text-transform: none; widows: 2; word-spacing: 0px; -webkit-text-stroke-width: 0px; text-decoration-thickness: initial; text-decoration-style: initial; text-decoration-color: initial; text-align: center; background-color: rgb(251, 251, 251);&quot;&gt;192.168.188.0/24&lt;/b&gt;" style="text;whiteSpace=wrap;html=1;" vertex="1" parent="1">
          <mxGeometry x="-158" y="94" width="110" height="40" as="geometry" />
        </mxCell>
        <mxCell id="-yCym-bt9uruvA2rh7P5-31" value="&lt;b style=&quot;border-color: var(--border-color); color: rgb(0, 0, 0); font-family: Helvetica; font-size: 12px; font-style: normal; font-variant-ligatures: normal; font-variant-caps: normal; letter-spacing: normal; orphans: 2; text-indent: 0px; text-transform: none; widows: 2; word-spacing: 0px; -webkit-text-stroke-width: 0px; text-decoration-thickness: initial; text-decoration-style: initial; text-decoration-color: initial; text-align: center; background-color: rgb(251, 251, 251);&quot;&gt;8.13.13.0/24&lt;/b&gt;" style="text;whiteSpace=wrap;html=1;" vertex="1" parent="1">
          <mxGeometry x="508" y="94" width="80" height="40" as="geometry" />
        </mxCell>
        <mxCell id="-yCym-bt9uruvA2rh7P5-32" value="&lt;b style=&quot;border-color: var(--border-color); text-align: center;&quot;&gt;8.13.13.1&lt;/b&gt;" style="text;whiteSpace=wrap;html=1;" vertex="1" parent="1">
          <mxGeometry x="333" y="201" width="80" height="40" as="geometry" />
        </mxCell>
        <mxCell id="-yCym-bt9uruvA2rh7P5-33" value="" style="endArrow=none;html=1;rounded=0;" edge="1" parent="1">
          <mxGeometry width="50" height="50" relative="1" as="geometry">
            <mxPoint x="241" y="164" as="sourcePoint" />
            <mxPoint x="251" y="154" as="targetPoint" />
          </mxGeometry>
        </mxCell>
        <mxCell id="-yCym-bt9uruvA2rh7P5-34" value="" style="endArrow=none;html=1;rounded=0;endSize=6;jumpSize=6;startSize=6;" edge="1" parent="1">
          <mxGeometry width="50" height="50" relative="1" as="geometry">
            <mxPoint x="240" y="164" as="sourcePoint" />
            <mxPoint x="250" y="174" as="targetPoint" />
          </mxGeometry>
        </mxCell>
        <mxCell id="-yCym-bt9uruvA2rh7P5-35" value="" style="endArrow=none;html=1;rounded=0;endSize=6;jumpSize=6;startSize=6;" edge="1" parent="1">
          <mxGeometry width="50" height="50" relative="1" as="geometry">
            <mxPoint x="400" y="270" as="sourcePoint" />
            <mxPoint x="410" y="280" as="targetPoint" />
          </mxGeometry>
        </mxCell>
        <mxCell id="-yCym-bt9uruvA2rh7P5-36" value="" style="endArrow=none;html=1;rounded=0;" edge="1" parent="1">
          <mxGeometry width="50" height="50" relative="1" as="geometry">
            <mxPoint x="400" y="270" as="sourcePoint" />
            <mxPoint x="410" y="260" as="targetPoint" />
          </mxGeometry>
        </mxCell>
        <mxCell id="-yCym-bt9uruvA2rh7P5-37" value="&lt;b style=&quot;border-color: var(--border-color); color: rgb(0, 0, 0); font-family: Helvetica; font-size: 12px; font-style: normal; font-variant-ligatures: normal; font-variant-caps: normal; letter-spacing: normal; orphans: 2; text-indent: 0px; text-transform: none; widows: 2; word-spacing: 0px; -webkit-text-stroke-width: 0px; text-decoration-thickness: initial; text-decoration-style: initial; text-decoration-color: initial; text-align: center; background-color: rgb(251, 251, 251);&quot;&gt;192.168.188.34&lt;/b&gt;" style="text;whiteSpace=wrap;html=1;" vertex="1" parent="1">
          <mxGeometry x="315" y="185" width="80" height="40" as="geometry" />
        </mxCell>
      </root>
    </mxGraphModel>
  </diagram>
</mxfile>
